HIERARCHY
ROOT root
{
	OFFSET	0	13.1	24.9
	CHANNELS 6  Xposition Yposition Zposition Xrotation Yrotation Zrotation
	JOINT spine_1
	{
		OFFSET	0	9.99999	0
		CHANNELS 3  Xrotation Yrotation Zrotation
		JOINT spine_2
		{
			OFFSET	0	112	-10
			CHANNELS 3  Xrotation Yrotation Zrotation
			JOINT spine_3
			{
				OFFSET	0	206.5	19.3
				CHANNELS 3  Xrotation Yrotation Zrotation
				JOINT spine_4
				{
					OFFSET	0	110.4	14.6
					CHANNELS 3  Xrotation Yrotation Zrotation
					JOINT neck_1
					{
						OFFSET	0	71.8	-50.3
						CHANNELS 3  Xrotation Yrotation Zrotation
						JOINT neck_2
						{
							OFFSET	0	86.2	-25.8
							CHANNELS 3  Xrotation Yrotation Zrotation
							JOINT head_ee
							{
								OFFSET	0	179.8	-8.7
								CHANNELS 3  Xrotation Yrotation Zrotation
								End Site
								{
									OFFSET	1	0	0
								}
							}
						}
					}
					JOINT left_clavicle
					{
						OFFSET	-43.2	22.4	-70.8
						CHANNELS 3  Xrotation Yrotation Zrotation
						JOINT left_shoulder
						{
							OFFSET	-93.9	-5.79999	48.7
							CHANNELS 3  Xrotation Yrotation Zrotation
							JOINT left_elbow
							{
								OFFSET	-291.4	-30.8	15.2
								CHANNELS 3  Xrotation Yrotation Zrotation
								JOINT left_lowarm_twist
								{
									OFFSET	-110.7	-3.89999	13.6
									CHANNELS 3  Xrotation Yrotation Zrotation
									JOINT left_hand
									{
										OFFSET	-110.7	-3.89999	13.6
										CHANNELS 3  Xrotation Yrotation Zrotation
										JOINT left_ee
										{
											OFFSET	-80.8	-5.10001	12.1
											CHANNELS 3  Xrotation Yrotation Zrotation
											End Site
											{
												OFFSET	1	0	0
											}
										}
									}
								}
							}
						}
					}
					JOINT right_clavicle
					{
						OFFSET	43.2	22.4	-70.8
						CHANNELS 3  Xrotation Yrotation Zrotation
						JOINT right_shoulder
						{
							OFFSET	93.9	-5.79999	48.7
							CHANNELS 3  Xrotation Yrotation Zrotation
							JOINT right_elbow
							{
								OFFSET	291.4	-30.8	15.2
								CHANNELS 3  Xrotation Yrotation Zrotation
								JOINT right_lowarm_twist
								{
									OFFSET	110.7	-3.89999	13.6
									CHANNELS 3  Xrotation Yrotation Zrotation
									JOINT right_hand
									{
										OFFSET	110.7	-3.89999	13.6
										CHANNELS 3  Xrotation Yrotation Zrotation
										JOINT right_ee
										{
											OFFSET	80.8	-5.10001	12.1
											CHANNELS 3  Xrotation Yrotation Zrotation
											End Site
											{
												OFFSET	1	0	0
											}
										}
									}
								}
							}
						}
					}
				}
			}
		}
	}
	JOINT left_hip
	{
		OFFSET	-82.8	-127.5	0.300001
		CHANNELS 3  Xrotation Yrotation Zrotation
		JOINT left_knee
		{
			OFFSET	-28.2	-396.7	2.2
			CHANNELS 3  Xrotation Yrotation Zrotation
			JOINT left_ankle
			{
				OFFSET	-11.7	-411.3	35.4
				CHANNELS 3  Xrotation Yrotation Zrotation
				JOINT left_toes
				{
					OFFSET	0	-60	-88.6
					CHANNELS 3  Xrotation Yrotation Zrotation
					JOINT left_foot_ee
					{
						OFFSET	-22.5	-16.5	-42.2
						CHANNELS 3  Xrotation Yrotation Zrotation
						End Site
						{
							OFFSET	1	0	0
						}
					}
				}
			}
		}
	}
	JOINT right_hip
	{
		OFFSET	82.8	-127.5	0.300001
		CHANNELS 3  Xrotation Yrotation Zrotation
		JOINT right_knee
		{
			OFFSET	28.2	-396.7	2.2
			CHANNELS 3  Xrotation Yrotation Zrotation
			JOINT right_ankle
			{
				OFFSET	11.7	-411.3	35.4
				CHANNELS 3  Xrotation Yrotation Zrotation
				JOINT right_toes
				{
					OFFSET	0	-60	-88.6
					CHANNELS 3  Xrotation Yrotation Zrotation
					JOINT right_foot_ee
					{
						OFFSET	22.5	-16.5	-42.2
						CHANNELS 3  Xrotation Yrotation Zrotation
						End Site
						{
							OFFSET	1	0	0
						}
					}
				}
			}
		}
	}
}
MOTION
Frames: 8
Frame Time: 0.02
3508.08 783.92 -695.302 13.5213 63.7238 -4.34641 -2.92063 -0.0917926 -1.77269 -2.91888 0.0211764 -1.77494 -2.91755 0.481488 -1.70854 -2.92156 0.205657 -1.76312 -6.94391 9.6888 6.62689 -6.83727 13.215 8.55838 -0.0 0.0 -0.0 6.68295 -9.05903 12.7574 -10.8778 -32.5069 58.1618 0.720181 -19.6342 0.12462 12.2581 0.268061 -1.53994 1.21987 -8.72152 4.53741 -0.0 0.0 -0.0 10.7387 2.29903 -21.3112 -23.0823 20.2078 -52.3963 0.834924 22.4697 -0.16585 37.2041 0.211882 4.6654 3.81658 28.4333 -12.3513 0.0 0.0 0.0 11.3481 50.5775 -23.6624 -15.4056 0.322059 2.33512 1.89597 -28.9069 -0.34687 40.1174 -0.0 -0.0 -0.0 0.0 -0.0 9.09233 -0.210512 -5.16053 -8.46679 -0.254909 -1.27321 -9.25692 -25.3111 -1.43888 38.0784 -0.0 -0.0 0.0 0.0 0.0 
3503.24 785.081 -691.414 10.6086 63.1611 -2.19562 -2.93909 -0.0786496 -1.81193 -2.93727 0.0367884 -1.81326 -2.93637 0.507103 -1.74132 -2.94053 0.225777 -1.79953 -6.88053 10.2621 5.04958 -6.82146 15.4176 7.10141 -0.0 0.0 -0.0 6.91014 -6.34601 13.3236 -8.38769 -32.2854 57.7988 0.855883 -22.9757 0.173946 13.6069 0.27729 -1.71198 0.939658 -7.75878 3.05218 -0.0 0.0 -0.0 10.6353 2.4176 -21.0967 -23.4781 20.4743 -51.3186 0.744866 20.2533 -0.13304 37.8863 0.243913 4.74654 3.42495 27.8846 -10.1311 0.0 0.0 0.0 12.8032 48.1256 -22.7746 -19.012 0.306086 2.88813 3.06493 -27.1948 -0.546444 39.826 -0.0 -0.0 -0.0 0.0 -0.0 10.1662 1.18223 -4.50469 -4.01784 -0.144449 -0.59957 -9.1439 -21.3163 -1.39543 35.2931 -0.0 -0.0 0.0 0.0 0.0 
3499.26 781.477 -692.049 9.02619 63.1189 -0.867754 -2.9909 -0.167807 -1.77789 -2.98914 -0.0543541 -1.78496 -2.98529 0.413175 -1.73734 -2.98947 0.133654 -1.78078 -6.99061 9.9375 5.33809 -6.92569 14.622 7.33399 -0.0 0.0 -0.0 6.99116 -7.72699 13.4517 -7.57266 -33.2959 56.879 0.861023 -23.0993 0.175957 13.8343 0.278446 -1.74099 0.885466 -6.84756 3.07262 -0.0 0.0 -0.0 10.9703 1.32457 -21.7541 -23.6001 20.7551 -50.6279 0.692418 18.9322 -0.115451 37.2693 0.214904 4.67318 2.95912 26.657 -7.77892 0.0 0.0 0.0 15.6287 47.5954 -24.391 -22.3729 0.259908 3.4017 5.60793 -27.3779 -0.993206 39.3375 -0.0 -0.0 -0.0 0.0 -0.0 10.8493 1.61202 -4.93361 2.04046 0.0893875 0.300329 -10.8005 -16.7722 -1.628 32.1973 -0.0 -0.0 0.0 0.0 0.0 
3497.18 779.636 -693.522 9.48722 63.9242 -1.24751 -3.1647 -0.257869 -1.86465 -3.16278 -0.138715 -1.87727 -3.15563 0.361287 -1.84741 -3.16038 0.0650432 -1.88127 -5.85521 10.3536 5.98607 -5.75089 14.7176 7.94741 -0.0 0.0 -0.0 7.29297 -7.8951 14.0789 -5.47987 -31.8167 54.9486 1.11072 -28.8195 0.285395 14.2074 0.280094 -1.78862 0.748567 -6.17291 2.43323 -0.0 0.0 -0.0 11.0086 3.86292 -21.954 -24.4943 20.4623 -50.7529 0.647122 17.7741 -0.101188 38.8816 0.292372 4.86423 2.53979 24.629 -6.08651 0.0 0.0 0.0 13.382 45.0121 -22.4096 -22.4237 0.258979 3.40943 8.91771 -25.5061 -1.5246 38.7142 -0.0 -0.0 -0.0 0.0 -0.0 13.6508 2.19223 -5.00381 4.12819 0.191878 0.604194 -12.1012 -9.34894 -1.80888 28.9994 -0.0 -0.0 0.0 0.0 0.0 
3494.85 779.353 -690.948 7.53751 64.9155 0.558575 -3.02088 -0.182679 -1.86945 -3.01894 -0.0633721 -1.87728 -3.01445 0.429494 -1.8286 -3.01909 0.135364 -1.87346 -7.38953 9.56474 6.3736 -7.2979 13.249 8.32149 -0.0 0.0 -0.0 7.5731 -6.31216 14.7032 -5.0386 -34.2729 52.6229 1.42266 -35.1721 0.450935 13.2983 0.275535 -1.6726 0.641047 -5.971 1.79276 -0.0 0.0 -0.0 11.0148 4.61712 -21.9939 -26.2157 19.6347 -50.9968 0.642911 17.6657 -0.0999063 39.5433 0.325723 4.94201 2.18604 23.2068 -4.46988 0.0 0.0 0.0 13.2976 40.5567 -21.0577 -24.7052 0.210195 3.75611 11.1371 -24.8786 -1.87284 37.2102 -0.0 -0.0 -0.0 0.0 -0.0 15.176 3.10476 -4.61722 6.16211 0.302338 0.896526 -13.278 -4.68097 -1.99213 28.3181 -0.0 -0.0 0.0 0.0 0.0 
3488.1 773.618 -694.457 7.22863 65.951 0.632273 -2.9892 -0.316695 -1.76994 -2.98748 -0.203446 -1.7865 -2.97875 0.269378 -1.77776 -2.98316 -0.014719 -1.79799 -7.71945 9.77151 6.87299 -7.61534 13.3389 8.88732 -0.0 0.0 -0.0 7.79743 -6.2159 15.1733 -2.75626 -35.049 51.6025 1.64302 -39.1391 0.584104 12.7145 0.271637 -1.59814 0.508792 -6.20863 0.799811 -0.0 0.0 -0.0 11.3069 5.0876 -22.6448 -27.3816 18.9454 -50.642 0.607852 16.7578 -0.0895321 40.712 0.386811 5.07842 1.88079 22.1191 -2.98329 0.0 0.0 0.0 12.9265 39.6009 -20.7093 -24.6955 0.210432 3.75464 13.3786 -27.2717 -2.28984 37.6703 -0.0 -0.0 -0.0 0.0 -0.0 17.9492 4.19564 -4.77185 5.82002 0.283032 0.84763 -16.4431 -0.40194 -2.49377 26.922 -0.0 -0.0 0.0 0.0 0.0 
3482.78 772.116 -701.01 5.86398 66.5923 1.77731 -2.83507 -0.37105 -1.82971 -2.83324 -0.253889 -1.84961 -2.82251 0.232063 -1.85247 -2.82729 -0.0633605 -1.86587 -8.29467 9.56596 7.39527 -8.17618 12.6933 9.40672 -0.0 0.0 -0.0 7.88746 -5.37796 15.3722 -1.87812 -34.9362 50.1466 1.88675 -43.0607 0.744423 12.569 0.270547 -1.57957 0.446391 -6.32306 0.330315 -0.0 0.0 -0.0 11.3324 5.36878 -22.7094 -28.3578 18.7551 -51.6819 0.60465 16.6745 -0.088611 41.4003 0.424092 5.15818 1.69798 21.3549 -2.13546 0.0 0.0 0.0 12.444 38.2554 -20.4333 -24.2756 0.220436 3.69098 14.6808 -26.6987 -2.47978 37.1294 -0.0 -0.0 -0.0 0.0 -0.0 19.4653 4.65737 -4.65633 5.3506 0.257019 0.780352 -18.5046 2.63454 -2.83568 25.685 -0.0 -0.0 0.0 0.0 0.0 
3474.04 767.763 -708.12 5.2706 67.725 2.06105 -2.884 -0.466195 -1.80492 -2.88226 -0.350418 -1.83092 -2.86843 0.135419 -1.85921 -2.87322 -0.159857 -1.85727 -7.17319 9.47703 7.09934 -7.05167 12.5209 9.00321 -0.0 0.0 -0.0 8.04055 -5.53895 15.6897 -2.09964 -35.0811 48.5792 2.13144 -46.5504 0.916936 12.552 0.270417 -1.5774 0.445481 -7.04783 0.0166762 -0.0 0.0 -0.0 11.2968 4.63383 -22.607 -29.0066 18.454 -51.9816 0.568219 15.721 -0.078448 41.806 0.446517 5.20498 1.58055 20.9664 -1.53985 0.0 0.0 0.0 12.6416 38.7929 -20.9988 -24.0921 0.224661 3.66314 15.603 -26.5599 -2.61917 36.2031 -0.0 -0.0 -0.0 0.0 -0.0 20.5645 5.02291 -4.78964 4.99524 0.237694 0.729282 -21.2842 4.001 -3.28098 23.8113 -0.0 -0.0 0.0 0.0 0.0 
